<svg width="14" height="14" viewBox="0 0 14 14" fill="none" xmlns="http://www.w3.org/2000/svg">
<path d="M4.71392 1.5748L4.71369 1.57503L1.57502 4.7137C1.3888 4.89992 1.30374 5.1515 1.33873 5.41201L4.71392 1.5748ZM4.71392 1.5748C4.87672 1.41184 5.09053 1.32729 5.31418 1.33153M4.71392 1.5748L5.31418 1.33153M6.41534 11.9896C6.44901 11.9966 6.48258 12 6.51625 12C6.64725 12 6.7751 11.9482 6.86977 11.8535M6.41534 11.9896L11.9896 6.41535C12.0232 6.58002 11.9722 6.75111 11.8535 6.86978L10.1851 8.53764L10.185 8.53757L9.7156 9.00701L9.71482 9.0078L10.185 9.4781L10.185 9.47803L13.1868 12.4798C13.2348 12.5259 13.2731 12.5811 13.2995 12.6421C13.3259 12.7032 13.3398 12.7689 13.3405 12.8354C13.3412 12.9019 13.3286 12.9679 13.3034 13.0295C13.2783 13.0911 13.2411 13.1471 13.1941 13.1941C13.147 13.2411 13.0911 13.2783 13.0295 13.3035C12.9679 13.3286 12.9019 13.3412 12.8354 13.3405C12.7689 13.3399 12.7032 13.3259 12.6421 13.2995C12.581 13.2731 12.5259 13.2348 12.4798 13.1868L9.47801 10.1851L9.47808 10.185L9.00779 9.71483L9.007 9.71562L8.53756 10.1851L8.53763 10.1851L6.86977 11.8535M6.41534 11.9896C6.25067 11.9559 6.11472 11.8415 6.05206 11.6855M6.41534 11.9896L6.05206 11.6855M6.86977 11.8535L6.51696 11.5008L6.51625 11.5001L6.51605 11.4999L6.5154 11.5002L6.05206 11.6855M6.86977 11.8535L6.51698 11.5007L6.51625 11.5L6.51613 11.4999L6.51625 11.4998L6.51725 11.4994L6.66948 11.4385L6.05206 11.6855M11.2062 6.57657L8.27774 5.40518L8.06236 5.31903L7.94729 5.11761L6.02416 1.75114C6.02414 1.75112 6.02413 1.7511 6.02411 1.75107C5.89344 1.52245 5.67287 1.37384 5.41221 1.33877L11.2062 6.57657ZM11.2062 6.57657L9.24466 8.5375L9.00775 8.77434L9.00772 8.77431L8.89083 8.89123L8.77429 9.00773L8.77433 9.00776L8.53749 9.24468L6.57654 11.2062L5.40515 8.27836L5.31904 8.06311L5.11776 7.94805L1.75123 6.02357L1.75113 6.02352C1.52221 5.8927 1.37374 5.67224 1.33874 5.41207L11.2062 6.57657ZM6.05206 11.6855L4.78773 8.52538L6.05206 11.6855ZM5.31418 1.33153C5.34855 1.33219 5.38115 1.33461 5.41206 1.33875L5.31418 1.33153ZM12.8405 12.8405L12.8405 12.8405L12.8405 12.8405ZM12.8405 12.8405L12.8333 12.8333L12.8405 12.8405L12.8405 12.8405Z" fill="white" stroke="white" stroke-width="1.33"/>
</svg>
