<svg width="24" height="24" viewBox="0 0 24 24" fill="none" xmlns="http://www.w3.org/2000/svg">
<path d="M17.2352 1.49317C17.0404 1.49885 16.8555 1.5801 16.7196 1.71973L6.96958 11.4697C6.82898 11.6104 6.75 11.8011 6.75 12C6.75 12.1989 6.82898 12.3896 6.96958 12.5303L16.7196 22.2803C16.7887 22.3523 16.8715 22.4097 16.9631 22.4493C17.0547 22.4889 17.1532 22.5098 17.253 22.5108C17.3528 22.5118 17.4518 22.4929 17.5442 22.4552C17.6365 22.4175 17.7205 22.3617 17.791 22.2912C17.8616 22.2206 17.9174 22.1367 17.9551 22.0443C17.9928 21.9519 18.0117 21.8529 18.0107 21.7532C18.0097 21.6534 17.9887 21.5548 17.9492 21.4632C17.9096 21.3716 17.8521 21.2888 17.7801 21.2197L8.5604 12L17.7801 2.78028C17.8883 2.6749 17.9622 2.53931 17.9921 2.39126C18.0219 2.24321 18.0064 2.08959 17.9475 1.9505C17.8886 1.81142 17.7891 1.69335 17.662 1.61175C17.5349 1.53015 17.3862 1.48882 17.2352 1.49317Z" fill="black"/>
</svg>
