<svg width="16" height="16" viewBox="0 0 16 16" fill="none" xmlns="http://www.w3.org/2000/svg">
<path d="M5.15355 1.99481C5.05404 1.99633 4.95725 2.0275 4.87557 2.08435C4.79388 2.14119 4.73101 2.22111 4.69501 2.31388C4.659 2.40666 4.6515 2.50806 4.67346 2.60513C4.69541 2.70219 4.74583 2.7905 4.81826 2.85874L10.1151 8.00002L4.81826 13.1413C4.77008 13.1868 4.73142 13.2414 4.70453 13.3019C4.67764 13.3625 4.66305 13.4278 4.66161 13.494C4.66017 13.5603 4.67191 13.6261 4.69614 13.6878C4.72038 13.7495 4.75662 13.8057 4.80278 13.8532C4.84894 13.9008 4.90408 13.9387 4.965 13.9647C5.02593 13.9907 5.09142 14.0044 5.15768 14.0049C5.22393 14.0054 5.28963 13.9928 5.35095 13.9677C5.41227 13.9426 5.46799 13.9056 5.51487 13.8587L11.1815 8.35874C11.2295 8.31213 11.2677 8.25637 11.2937 8.19475C11.3198 8.13313 11.3332 8.06692 11.3332 8.00002C11.3332 7.93312 11.3198 7.8669 11.2937 7.80528C11.2677 7.74366 11.2295 7.6879 11.1815 7.64129L5.51487 2.14129C5.46752 2.09392 5.41114 2.05655 5.34907 2.03139C5.28701 2.00622 5.22051 1.99378 5.15355 1.99481Z" fill="#09090B"/>
</svg>
