<svg width="16" height="16" viewBox="0 0 16 16" fill="none" xmlns="http://www.w3.org/2000/svg">
<mask id="path-1-inside-1_353_786" fill="white">
<path d="M6.332 1.67449C5.94088 1.66477 5.5448 1.80348 5.24346 2.10483L2.10478 5.24285V5.2435C1.41622 5.93256 1.5753 7.1177 2.42119 7.60092L5.78773 9.5254L7.05205 12.6856C7.08278 12.7624 7.13209 12.8303 7.19556 12.8834C7.25902 12.9365 7.33466 12.973 7.4157 12.9896C7.49673 13.0063 7.58063 13.0025 7.65988 12.9788C7.73912 12.955 7.81124 12.912 7.86976 12.8535L10.0084 10.7155L13.4798 14.1869C13.5259 14.2348 13.581 14.2732 13.6421 14.2995C13.7032 14.3259 13.7689 14.3399 13.8354 14.3406C13.9019 14.3412 13.9679 14.3286 14.0295 14.3035C14.0911 14.2783 14.147 14.2412 14.1941 14.1941C14.2411 14.1471 14.2783 14.0911 14.3034 14.0295C14.3286 13.968 14.3412 13.902 14.3405 13.8354C14.3398 13.7689 14.3259 13.7032 14.2995 13.6421C14.2731 13.5811 14.2348 13.5259 14.1868 13.4798L10.7155 10.0085L12.8541 7.8698C12.9126 7.81128 12.9556 7.73916 12.9794 7.65992C13.0031 7.58068 13.0069 7.49678 12.9902 7.41574C12.9736 7.3347 12.9371 7.25906 12.884 7.1956C12.831 7.13213 12.763 7.08282 12.6862 7.05209L9.52536 5.78777L7.60153 2.42123V2.42058C7.35974 1.99775 6.94225 1.74682 6.49932 1.68751C6.44395 1.68009 6.38787 1.67588 6.332 1.67449ZM6.25908 2.66147C6.29564 2.65779 6.33234 2.65858 6.36846 2.66342C6.51294 2.68278 6.6485 2.76949 6.73304 2.91733L8.74411 6.43556C8.80004 6.53352 8.88746 6.60969 8.99215 6.6517L11.6106 7.69858L7.69853 11.6107L6.65166 8.9922C6.60978 8.88726 6.53359 8.7996 6.43551 8.7435L2.91728 6.73308C2.62204 6.56442 2.57227 6.19149 2.81247 5.95053V5.94988L5.95049 2.81251C6.04069 2.7223 6.1494 2.67249 6.25908 2.66147Z"/>
</mask>
<path d="M6.332 1.67449C5.94088 1.66477 5.5448 1.80348 5.24346 2.10483L2.10478 5.24285V5.2435C1.41622 5.93256 1.5753 7.1177 2.42119 7.60092L5.78773 9.5254L7.05205 12.6856C7.08278 12.7624 7.13209 12.8303 7.19556 12.8834C7.25902 12.9365 7.33466 12.973 7.4157 12.9896C7.49673 13.0063 7.58063 13.0025 7.65988 12.9788C7.73912 12.955 7.81124 12.912 7.86976 12.8535L10.0084 10.7155L13.4798 14.1869C13.5259 14.2348 13.581 14.2732 13.6421 14.2995C13.7032 14.3259 13.7689 14.3399 13.8354 14.3406C13.9019 14.3412 13.9679 14.3286 14.0295 14.3035C14.0911 14.2783 14.147 14.2412 14.1941 14.1941C14.2411 14.1471 14.2783 14.0911 14.3034 14.0295C14.3286 13.968 14.3412 13.902 14.3405 13.8354C14.3398 13.7689 14.3259 13.7032 14.2995 13.6421C14.2731 13.5811 14.2348 13.5259 14.1868 13.4798L10.7155 10.0085L12.8541 7.8698C12.9126 7.81128 12.9556 7.73916 12.9794 7.65992C13.0031 7.58068 13.0069 7.49678 12.9902 7.41574C12.9736 7.3347 12.9371 7.25906 12.884 7.1956C12.831 7.13213 12.763 7.08282 12.6862 7.05209L9.52536 5.78777L7.60153 2.42123V2.42058C7.35974 1.99775 6.94225 1.74682 6.49932 1.68751C6.44395 1.68009 6.38787 1.67588 6.332 1.67449ZM6.25908 2.66147C6.29564 2.65779 6.33234 2.65858 6.36846 2.66342C6.51294 2.68278 6.6485 2.76949 6.73304 2.91733L8.74411 6.43556C8.80004 6.53352 8.88746 6.60969 8.99215 6.6517L11.6106 7.69858L7.69853 11.6107L6.65166 8.9922C6.60978 8.88726 6.53359 8.7996 6.43551 8.7435L2.91728 6.73308C2.62204 6.56442 2.57227 6.19149 2.81247 5.95053V5.94988L5.95049 2.81251C6.04069 2.7223 6.1494 2.67249 6.25908 2.66147Z" fill="#09090B"/>
<path d="M6.332 1.67449L6.29897 3.00408L6.332 1.67449ZM5.24346 2.10483L6.18381 3.04538L6.18391 3.04528L5.24346 2.10483ZM2.10478 5.24285L1.16443 4.3023L0.774785 4.69186V5.24285H2.10478ZM2.10478 5.2435L3.04557 6.18361L3.43478 5.79412V5.2435H2.10478ZM2.42119 7.60092L3.08125 6.44627L3.08091 6.44607L2.42119 7.60092ZM5.78773 9.5254L7.02257 9.03136L6.85033 8.60086L6.44778 8.37075L5.78773 9.5254ZM7.05205 12.6856L5.81721 13.1796L5.81723 13.1796L7.05205 12.6856ZM7.86976 12.8535L8.80983 13.7944L8.81007 13.7941L7.86976 12.8535ZM10.0084 10.7155L10.9489 9.77505L10.0086 8.83474L9.06812 9.77491L10.0084 10.7155ZM13.4798 14.1869L14.4392 13.2657L14.4298 13.256L14.4202 13.2464L13.4798 14.1869ZM14.1868 13.4798L13.2464 14.4203L13.2559 14.4298L13.2657 14.4392L14.1868 13.4798ZM10.7155 10.0085L9.77501 9.06802L8.83456 10.0085L9.77501 10.9489L10.7155 10.0085ZM12.8541 7.8698L13.7946 8.81025L13.795 8.80987L12.8541 7.8698ZM12.6862 7.05209L13.1803 5.81727L13.1801 5.81722L12.6862 7.05209ZM9.52536 5.78777L8.37061 6.44766L8.60074 6.85038L9.03141 7.02264L9.52536 5.78777ZM7.60153 2.42123H6.27153V2.77445L6.44678 3.08112L7.60153 2.42123ZM7.60153 2.42058H8.93153V2.06716L8.75609 1.76035L7.60153 2.42058ZM6.49932 1.68751L6.67583 0.369274L6.49932 1.68751ZM6.25908 2.66147L6.39204 3.9848L6.25908 2.66147ZM6.36846 2.66342L6.19186 3.98164H6.19186L6.36846 2.66342ZM6.73304 2.91733L7.88771 2.2573L7.8876 2.2571L6.73304 2.91733ZM8.74411 6.43556L9.8991 5.77609L9.89878 5.77553L8.74411 6.43556ZM8.99215 6.6517L8.4969 7.88605L8.49842 7.88666L8.99215 6.6517ZM11.6106 7.69858L12.5511 8.63903L13.9776 7.21253L12.1044 6.46362L11.6106 7.69858ZM7.69853 11.6107L6.46358 12.1044L7.21249 13.9776L8.63899 12.5511L7.69853 11.6107ZM6.65166 8.9922L5.41641 9.48521L5.4167 9.48593L6.65166 8.9922ZM6.43551 8.7435L7.09587 7.58902L7.09538 7.58873L6.43551 8.7435ZM2.91728 6.73308L3.57715 5.57832L3.577 5.57824L2.91728 6.73308ZM2.81247 5.95053L3.7544 6.8895L4.14247 6.50021V5.95053H2.81247ZM2.81247 5.94988L1.87211 5.00933L1.48247 5.39889V5.94988H2.81247ZM5.95049 2.81251L6.89084 3.75306L6.89094 3.75296L5.95049 2.81251ZM6.36502 0.344898C5.63778 0.326834 4.88101 0.586373 4.303 1.16437L6.18391 3.04528C6.19903 3.03016 6.21393 3.0211 6.23008 3.01491C6.24768 3.00816 6.27104 3.00338 6.29897 3.00408L6.36502 0.344898ZM4.3031 1.16428L1.16443 4.3023L3.04514 6.1834L6.18381 3.04538L4.3031 1.16428ZM0.774785 5.24285V5.2435H3.43478V5.24285H0.774785ZM1.164 4.30338C-0.14448 5.6128 0.15436 7.83769 1.76147 8.75577L3.08091 6.44607C3.04696 6.42668 3.01467 6.38896 3.00575 6.32247C2.99682 6.25599 3.01802 6.21119 3.04557 6.18361L1.164 4.30338ZM1.76113 8.75557L5.12767 10.6801L6.44778 8.37075L3.08125 6.44627L1.76113 8.75557ZM4.55289 10.0194L5.81721 13.1796L8.28689 12.1915L7.02257 9.03136L4.55289 10.0194ZM5.81723 13.1796C5.9297 13.4607 6.11016 13.7095 6.34243 13.9037L8.04869 11.8631C8.15402 11.9512 8.23586 12.064 8.28687 12.1915L5.81723 13.1796ZM6.34243 13.9037C6.57469 14.0979 6.85152 14.2315 7.14809 14.2924L7.68331 11.6868C7.81781 11.7144 7.94335 11.775 8.04869 11.8631L6.34243 13.9037ZM7.14809 14.2924C7.44466 14.3533 7.75171 14.3397 8.04172 14.2528L7.27804 11.7048C7.40956 11.6654 7.54881 11.6592 7.68331 11.6868L7.14809 14.2924ZM8.04172 14.2528C8.33173 14.1659 8.59565 14.0084 8.80983 13.7944L6.92969 11.9127C7.02682 11.8156 7.14652 11.7442 7.27804 11.7048L8.04172 14.2528ZM8.81007 13.7941L10.9487 11.6561L9.06812 9.77491L6.92945 11.9129L8.81007 13.7941ZM9.06798 11.656L12.5393 15.1273L14.4202 13.2464L10.9489 9.77505L9.06798 11.656ZM12.5204 15.108C12.689 15.2836 12.891 15.4238 13.1145 15.5204L14.1698 13.0787C14.2711 13.1225 14.3627 13.1861 14.4392 13.2657L12.5204 15.108ZM13.1145 15.5204C13.3379 15.617 13.5784 15.668 13.8219 15.6705L13.8489 13.0106C13.9593 13.0117 14.0684 13.0349 14.1698 13.0787L13.1145 15.5204ZM13.8219 15.6705C14.0653 15.673 14.3068 15.6268 14.5322 15.5348L13.5268 13.0722C13.629 13.0304 13.7385 13.0095 13.8489 13.0106L13.8219 15.6705ZM14.5322 15.5348C14.7576 15.4428 14.9624 15.3067 15.1345 15.1346L13.2536 13.2537C13.3317 13.1756 13.4246 13.1139 13.5268 13.0722L14.5322 15.5348ZM15.1345 15.1346C15.3067 14.9624 15.4428 14.7576 15.5348 14.5323L13.0721 13.5268C13.1138 13.4246 13.1756 13.3317 13.2536 13.2537L15.1345 15.1346ZM15.5348 14.5323C15.6268 14.3069 15.6729 14.0654 15.6704 13.8219L13.0106 13.849C13.0095 13.7386 13.0304 13.629 13.0721 13.5268L15.5348 14.5323ZM15.6704 13.8219C15.668 13.5785 15.6169 13.338 15.5204 13.1145L13.0786 14.1698C13.0348 14.0684 13.0117 13.9594 13.0106 13.849L15.6704 13.8219ZM15.5204 13.1145C15.4238 12.891 15.2836 12.6891 15.108 12.5204L13.2657 14.4392C13.186 14.3627 13.1224 14.2711 13.0786 14.1698L15.5204 13.1145ZM15.1273 12.5394L11.6559 9.06802L9.77501 10.9489L13.2464 14.4203L15.1273 12.5394ZM11.6559 10.9489L13.7946 8.81025L11.9137 6.92935L9.77501 9.06802L11.6559 10.9489ZM13.795 8.80987C14.009 8.59569 14.1665 8.33177 14.2534 8.04176L11.7054 7.27808C11.7448 7.14656 11.8162 7.02687 11.9133 6.92973L13.795 8.80987ZM14.2534 8.04176C14.3403 7.75175 14.3539 7.4447 14.293 7.14813L11.6874 7.68335C11.6598 7.54885 11.666 7.4096 11.7054 7.27808L14.2534 8.04176ZM14.293 7.14813C14.2321 6.85156 14.0986 6.57474 13.9043 6.34247L11.8637 8.04873C11.7756 7.94339 11.7151 7.81785 11.6874 7.68335L14.293 7.14813ZM13.9043 6.34247C13.7101 6.1102 13.4613 5.92975 13.1803 5.81727L12.1921 8.28691C12.0646 8.2359 11.9518 8.15406 11.8637 8.04873L13.9043 6.34247ZM13.1801 5.81722L10.0193 4.5529L9.03141 7.02264L12.1922 8.28697L13.1801 5.81722ZM10.6801 5.12788L8.75628 1.76134L6.44678 3.08112L8.37061 6.44766L10.6801 5.12788ZM8.93153 2.42123V2.42058H6.27153V2.42123H8.93153ZM8.75609 1.76035C8.2916 0.948104 7.49435 0.478877 6.67583 0.369274L6.3228 3.00574C6.35543 3.01011 6.38296 3.02116 6.40298 3.03413C6.42103 3.04582 6.43518 3.06018 6.44697 3.08081L8.75609 1.76035ZM6.67583 0.369274C6.5695 0.355036 6.46537 0.34739 6.36502 0.344898L6.29897 3.00408C6.31038 3.00436 6.3184 3.00515 6.3228 3.00574L6.67583 0.369274ZM6.39204 3.9848C6.32162 3.99188 6.25437 3.99002 6.19186 3.98164L6.54505 1.3452C6.41031 1.32714 6.26966 1.32371 6.12612 1.33813L6.39204 3.9848ZM6.19186 3.98164C5.91467 3.94451 5.69407 3.77968 5.57848 3.57756L7.8876 2.2571C7.60293 1.75929 7.1112 1.42104 6.54505 1.3452L6.19186 3.98164ZM5.57837 3.57735L7.58944 7.09558L9.89878 5.77553L7.88771 2.2573L5.57837 3.57735ZM7.58911 7.09502C7.79382 7.45354 8.11374 7.73232 8.4969 7.88605L9.48741 5.41735C9.66118 5.48707 9.80627 5.6135 9.8991 5.77609L7.58911 7.09502ZM8.49842 7.88666L11.1169 8.93354L12.1044 6.46362L9.48589 5.41674L8.49842 7.88666ZM10.6702 6.75812L6.75808 10.6702L8.63899 12.5511L12.5511 8.63903L10.6702 6.75812ZM8.93349 11.1169L7.88662 8.49846L5.4167 9.48593L6.46358 12.1044L8.93349 11.1169ZM7.88691 8.49918C7.73363 8.11514 7.45481 7.79433 7.09587 7.58902L5.77516 9.89798C5.61237 9.80487 5.48592 9.65938 5.41641 9.48521L7.88691 8.49918ZM7.09538 7.58873L3.57715 5.57832L2.25742 7.88785L5.77565 9.89826L7.09538 7.58873ZM3.577 5.57824C3.78175 5.6952 3.94552 5.91732 3.98234 6.19254C4.01912 6.46747 3.91971 6.72367 3.7544 6.8895L1.87054 5.01156C1.01377 5.87102 1.19908 7.28326 2.25756 7.88793L3.577 5.57824ZM4.14247 5.95053V5.94988H1.48247V5.95053H4.14247ZM3.75282 6.89043L6.89084 3.75306L5.01013 1.87196L1.87211 5.00933L3.75282 6.89043ZM6.89094 3.75296C6.77203 3.87187 6.59846 3.96406 6.39204 3.9848L6.12612 1.33813C5.70034 1.38091 5.30936 1.57273 5.01004 1.87206L6.89094 3.75296Z" fill="#09090B" mask="url(#path-1-inside-1_353_786)"/>
</svg>
