<svg width="20" height="20" viewBox="0 0 20 20" fill="none" xmlns="http://www.w3.org/2000/svg">
<path d="M13.2915 3.29139L13.2916 3.2913C13.7598 2.82285 14.3782 2.5874 15.0001 2.5874C15.622 2.5874 16.2404 2.82285 16.7087 3.2913L16.7087 3.29138C17.6473 4.22992 17.6473 5.77008 16.7087 6.70862L16.7087 6.70864L7.48673 15.9314C7.48673 15.9314 7.48672 15.9314 7.48671 15.9315C7.37214 16.046 7.22957 16.1295 7.07226 16.1747L6.94823 16.2104L6.94776 16.2109L2.74328 17.4114C2.74316 17.4114 2.74301 17.4114 2.74288 17.4115C2.72156 17.4175 2.69905 17.4177 2.67762 17.4121C2.65605 17.4065 2.63637 17.3953 2.62062 17.3795L2.26838 17.7317L2.62061 17.3795C2.60486 17.3637 2.5936 17.3441 2.588 17.3225L2.10588 17.4477L2.588 17.3225C2.58241 17.301 2.58266 17.2783 2.58873 17.2569C2.58874 17.2569 2.58875 17.2569 2.58876 17.2568L3.82481 12.9286L3.82496 12.9281C3.86955 12.7713 3.95377 12.6283 4.06866 12.5134C4.06866 12.5134 4.06867 12.5134 4.06867 12.5134L13.2915 3.29139ZM16.5321 3.46806L16.3856 3.32161H16.3698C15.972 2.99501 15.4867 2.83008 15.0001 2.83008C14.4457 2.83008 13.8919 3.04417 13.4682 3.46806C13.4681 3.46809 13.4681 3.46812 13.4681 3.46814L12.6601 4.27617L12.3065 4.62972L12.6601 4.98327L15.0168 7.34004L15.3704 7.6936L15.7239 7.34004L16.5321 6.53194C17.3835 5.68048 17.3835 4.31952 16.5321 3.46806ZM12.4834 5.15996L12.1299 4.80642L11.7763 5.15994L4.24538 12.69L4.24536 12.6901C4.15966 12.7758 4.09808 12.8803 4.06508 12.9964L4.04601 13.0634V13.0639L3.13751 16.2445L2.89033 17.1098L3.75564 16.8626L7.00271 15.9349L7.00349 15.9346C7.12039 15.901 7.22472 15.8387 7.30802 15.756L7.30923 15.7548L14.8402 8.22383L15.1937 7.87028L14.8402 7.51673L12.4834 5.15996Z" fill="black" stroke="#646464"/>
</svg>
