<svg width="16" height="16" viewBox="0 0 16 16" fill="none" xmlns="http://www.w3.org/2000/svg">
<mask id="path-1-inside-1_353_668" fill="white">
<path d="M7.99002 0.0744171C7.8244 0.0770046 7.66658 0.145223 7.55123 0.264089C7.43587 0.382955 7.37241 0.542747 7.37479 0.708369V7.37504H0.70812C0.6253 7.37386 0.543074 7.38917 0.466218 7.42005C0.389363 7.45093 0.319413 7.49678 0.260432 7.55494C0.201451 7.61309 0.154615 7.68238 0.122648 7.75879C0.0906808 7.8352 0.0742188 7.91721 0.0742188 8.00004C0.0742188 8.08286 0.0906808 8.16487 0.122648 8.24128C0.154615 8.31769 0.201451 8.38698 0.260432 8.44514C0.319413 8.50329 0.389363 8.54914 0.466218 8.58002C0.543074 8.61091 0.6253 8.62621 0.70812 8.62504H7.37479V15.2917C7.37362 15.3745 7.38892 15.4567 7.4198 15.5336C7.45068 15.6105 7.49653 15.6804 7.55469 15.7394C7.61284 15.7984 7.68213 15.8452 7.75855 15.8772C7.83496 15.9091 7.91696 15.9256 7.99979 15.9256C8.08261 15.9256 8.16462 15.9091 8.24103 15.8772C8.31744 15.8452 8.38673 15.7984 8.44489 15.7394C8.50304 15.6804 8.54889 15.6105 8.57977 15.5336C8.61066 15.4567 8.62596 15.3745 8.62479 15.2917V8.62504H15.2915C15.3743 8.62621 15.4565 8.61091 15.5334 8.58002C15.6102 8.54914 15.6802 8.50329 15.7391 8.44514C15.7981 8.38698 15.845 8.31769 15.8769 8.24128C15.9089 8.16487 15.9254 8.08286 15.9254 8.00004C15.9254 7.91721 15.9089 7.8352 15.8769 7.75879C15.845 7.68238 15.7981 7.61309 15.7391 7.55494C15.6802 7.49678 15.6102 7.45093 15.5334 7.42005C15.4565 7.38917 15.3743 7.37386 15.2915 7.37504H8.62479V0.708369C8.62599 0.624717 8.61038 0.541675 8.5789 0.464164C8.54741 0.386654 8.50069 0.316253 8.44149 0.257134C8.3823 0.198015 8.31184 0.15138 8.23428 0.119994C8.15673 0.0886083 8.07367 0.0731098 7.99002 0.0744171Z"/>
</mask>
<path d="M7.99002 0.0744171C7.8244 0.0770046 7.66658 0.145223 7.55123 0.264089C7.43587 0.382955 7.37241 0.542747 7.37479 0.708369V7.37504H0.70812C0.6253 7.37386 0.543074 7.38917 0.466218 7.42005C0.389363 7.45093 0.319413 7.49678 0.260432 7.55494C0.201451 7.61309 0.154615 7.68238 0.122648 7.75879C0.0906808 7.8352 0.0742188 7.91721 0.0742188 8.00004C0.0742188 8.08286 0.0906808 8.16487 0.122648 8.24128C0.154615 8.31769 0.201451 8.38698 0.260432 8.44514C0.319413 8.50329 0.389363 8.54914 0.466218 8.58002C0.543074 8.61091 0.6253 8.62621 0.70812 8.62504H7.37479V15.2917C7.37362 15.3745 7.38892 15.4567 7.4198 15.5336C7.45068 15.6105 7.49653 15.6804 7.55469 15.7394C7.61284 15.7984 7.68213 15.8452 7.75855 15.8772C7.83496 15.9091 7.91696 15.9256 7.99979 15.9256C8.08261 15.9256 8.16462 15.9091 8.24103 15.8772C8.31744 15.8452 8.38673 15.7984 8.44489 15.7394C8.50304 15.6804 8.54889 15.6105 8.57977 15.5336C8.61066 15.4567 8.62596 15.3745 8.62479 15.2917V8.62504H15.2915C15.3743 8.62621 15.4565 8.61091 15.5334 8.58002C15.6102 8.54914 15.6802 8.50329 15.7391 8.44514C15.7981 8.38698 15.845 8.31769 15.8769 8.24128C15.9089 8.16487 15.9254 8.08286 15.9254 8.00004C15.9254 7.91721 15.9089 7.8352 15.8769 7.75879C15.845 7.68238 15.7981 7.61309 15.7391 7.55494C15.6802 7.49678 15.6102 7.45093 15.5334 7.42005C15.4565 7.38917 15.3743 7.37386 15.2915 7.37504H8.62479V0.708369C8.62599 0.624717 8.61038 0.541675 8.5789 0.464164C8.54741 0.386654 8.50069 0.316253 8.44149 0.257134C8.3823 0.198015 8.31184 0.15138 8.23428 0.119994C8.15673 0.0886083 8.07367 0.0731098 7.99002 0.0744171Z" fill="black"/>
<path d="M7.99002 0.0744171L8.01611 1.74421L8.01612 1.74421L7.99002 0.0744171ZM7.37479 0.708369H9.04479V0.696392L9.04461 0.684415L7.37479 0.708369ZM7.37479 7.37504V9.04504H9.04479V7.37504H7.37479ZM0.70812 7.37504L0.684505 9.04487L0.696312 9.04504H0.70812V7.37504ZM0.70812 8.62504V6.95504H0.696312L0.684505 6.9552L0.70812 8.62504ZM7.37479 8.62504H9.04479V6.95504H7.37479V8.62504ZM7.37479 15.2917L9.04462 15.3153L9.04479 15.3035V15.2917H7.37479ZM8.62479 15.2917H6.95479V15.3035L6.95495 15.3153L8.62479 15.2917ZM8.62479 8.62504V6.95504H6.95479V8.62504H8.62479ZM15.2915 8.62504L15.3151 6.9552L15.3033 6.95504H15.2915V8.62504ZM15.2915 7.37504V9.04504H15.3033L15.3151 9.04487L15.2915 7.37504ZM8.62479 7.37504H6.95479V9.04504H8.62479V7.37504ZM8.62479 0.708369L6.95496 0.684415L6.95479 0.696391V0.708369H8.62479ZM7.96393 -1.59538C7.35583 -1.58588 6.77636 -1.3354 6.3528 -0.898955L8.74965 1.42713C8.55681 1.62584 8.29298 1.73989 8.01611 1.74421L7.96393 -1.59538ZM6.3528 -0.898955C5.92924 -0.462512 5.69624 0.124204 5.70496 0.732323L9.04461 0.684415C9.04859 0.961291 8.9425 1.22842 8.74965 1.42713L6.3528 -0.898955ZM5.70479 0.708369V7.37504H9.04479V0.708369H5.70479ZM7.37479 5.70504H0.70812V9.04504H7.37479V5.70504ZM0.731736 5.7052C0.427638 5.7009 0.125724 5.75708 -0.156463 5.87048L1.0889 8.96962C0.960423 9.02125 0.822962 9.04683 0.684505 9.04487L0.731736 5.7052ZM-0.156463 5.87048C-0.438655 5.98388 -0.695495 6.15223 -0.912058 6.36575L1.43292 8.74412C1.33432 8.84134 1.21738 8.91799 1.0889 8.96962L-0.156463 5.87048ZM-0.912058 6.36575C-1.12862 6.57927 -1.30058 6.8337 -1.41796 7.11426L1.66326 8.40333C1.60982 8.53107 1.53152 8.64691 1.43292 8.74412L-0.912058 6.36575ZM-1.41796 7.11426C-1.53534 7.39482 -1.59578 7.69591 -1.59578 8.00004H1.74422C1.74422 8.1385 1.7167 8.27559 1.66326 8.40333L-1.41796 7.11426ZM-1.59578 8.00004C-1.59578 8.30416 -1.53534 8.60525 -1.41796 8.88581L1.66326 7.59675C1.7167 7.72448 1.74422 7.86157 1.74422 8.00004H-1.59578ZM-1.41796 8.88581C-1.30058 9.16637 -1.12862 9.42081 -0.912058 9.63432L1.43292 7.25595C1.53152 7.35316 1.60982 7.469 1.66326 7.59675L-1.41796 8.88581ZM-0.912058 9.63432C-0.695495 9.84784 -0.438655 10.0162 -0.156463 10.1296L1.0889 7.03045C1.21738 7.08208 1.33432 7.15873 1.43292 7.25595L-0.912058 9.63432ZM-0.156463 10.1296C0.125724 10.243 0.427638 10.2992 0.731736 10.2949L0.684505 6.9552C0.822962 6.95324 0.960423 6.97882 1.0889 7.03045L-0.156463 10.1296ZM0.70812 10.295H7.37479V6.95504H0.70812V10.295ZM5.70479 8.62504V15.2917H9.04479V8.62504H5.70479ZM5.70495 15.2681C5.70065 15.5722 5.75683 15.8741 5.87023 16.1563L8.96937 14.9109C9.021 15.0394 9.04658 15.1769 9.04462 15.3153L5.70495 15.2681ZM5.87023 16.1563C5.98363 16.4385 6.15199 16.6953 6.3655 16.9119L8.74388 14.5669C8.84108 14.6655 8.91774 14.7824 8.96937 14.9109L5.87023 16.1563ZM6.3655 16.9119C6.57902 17.1284 6.83345 17.3004 7.11401 17.4178L8.40308 14.3366C8.53082 14.39 8.64667 14.4683 8.74388 14.5669L6.3655 16.9119ZM7.11401 17.4178C7.39458 17.5352 7.69567 17.5956 7.99979 17.5956V14.2556C8.13825 14.2556 8.27534 14.2831 8.40308 14.3366L7.11401 17.4178ZM7.99979 17.5956C8.30391 17.5956 8.605 17.5352 8.88556 17.4178L7.5965 14.3366C7.72424 14.2831 7.86132 14.2556 7.99979 14.2556V17.5956ZM8.88556 17.4178C9.16613 17.3004 9.42056 17.1284 9.63408 16.9119L7.2557 14.5669C7.35291 14.4683 7.46875 14.39 7.5965 14.3366L8.88556 17.4178ZM9.63408 16.9119C9.84759 16.6953 10.0159 16.4385 10.1293 16.1563L7.0302 14.9109C7.08184 14.7824 7.15849 14.6655 7.2557 14.5669L9.63408 16.9119ZM10.1293 16.1563C10.2427 15.8741 10.2989 15.5722 10.2946 15.2681L6.95495 15.3153C6.953 15.1769 6.97858 15.0394 7.0302 14.9109L10.1293 16.1563ZM10.2948 15.2917V8.62504H6.95479V15.2917H10.2948ZM8.62479 10.295H15.2915V6.95504H8.62479V10.295ZM15.2678 10.2949C15.5719 10.2992 15.8738 10.243 16.156 10.1296L14.9107 7.03045C15.0392 6.97882 15.1766 6.95324 15.3151 6.9552L15.2678 10.2949ZM16.156 10.1296C16.4382 10.0162 16.6951 9.84784 16.9116 9.63432L14.5667 7.25595C14.6652 7.15874 14.7822 7.08209 14.9107 7.03045L16.156 10.1296ZM16.9116 9.63432C17.1282 9.42081 17.3002 9.16638 17.4175 8.88581L14.3363 7.59675C14.3898 7.469 14.4681 7.35316 14.5667 7.25595L16.9116 9.63432ZM17.4175 8.88581C17.5349 8.60525 17.5954 8.30416 17.5954 8.00004H14.2554C14.2554 7.86157 14.2829 7.72449 14.3363 7.59675L17.4175 8.88581ZM17.5954 8.00004C17.5954 7.69592 17.5349 7.39482 17.4175 7.11426L14.3363 8.40333C14.2829 8.27559 14.2554 8.1385 14.2554 8.00004H17.5954ZM17.4175 7.11426C17.3002 6.83369 17.1282 6.57926 16.9116 6.36575L14.5667 8.74412C14.4681 8.64691 14.3898 8.53107 14.3363 8.40333L17.4175 7.11426ZM16.9116 6.36575C16.6951 6.15223 16.4382 5.98388 16.156 5.87048L14.9107 8.96962C14.7822 8.91799 14.6652 8.84133 14.5667 8.74412L16.9116 6.36575ZM16.156 5.87048C15.8738 5.75708 15.5719 5.7009 15.2678 5.7052L15.3151 9.04487C15.1766 9.04683 15.0392 9.02125 14.9107 8.96962L16.156 5.87048ZM15.2915 5.70504H8.62479V9.04504H15.2915V5.70504ZM10.2948 7.37504V0.708369H6.95479V7.37504H10.2948ZM10.2946 0.732323C10.299 0.425169 10.2417 0.120261 10.1261 -0.164331L7.03168 1.09266C6.97904 0.963088 6.95295 0.824264 6.95496 0.684415L10.2946 0.732323ZM10.1261 -0.164331C10.0105 -0.448928 9.83895 -0.707421 9.6216 -0.924492L7.26138 1.43876C7.16242 1.33993 7.08431 1.22224 7.03168 1.09266L10.1261 -0.164331ZM9.6216 -0.924492C9.40425 -1.14156 9.14554 -1.31279 8.86079 -1.42803L7.60777 1.66802C7.47813 1.61555 7.36034 1.53759 7.26138 1.43876L9.6216 -0.924492ZM8.86079 -1.42803C8.57605 -1.54327 8.27107 -1.60018 7.96392 -1.59538L8.01612 1.74421C7.87628 1.7464 7.73742 1.72049 7.60777 1.66802L8.86079 -1.42803Z" fill="#FAFAFA" mask="url(#path-1-inside-1_353_668)"/>
</svg>
