<svg width="28" height="28" viewBox="0 0 28 28" fill="none" xmlns="http://www.w3.org/2000/svg">
<rect width="28" height="28" rx="4" fill="black"/>
<path d="M11.916 16.012H7.842L7.142 18H5.476L8.962 8.256H10.81L14.296 18H12.616L11.916 16.012ZM11.468 14.71L9.886 10.188L8.29 14.71H11.468ZM22.6157 11.168C22.6157 11.6627 22.4991 12.1293 22.2657 12.568C22.0324 13.0067 21.6591 13.366 21.1457 13.646C20.6324 13.9167 19.9744 14.052 19.1717 14.052H17.4077V18H15.8117V8.27H19.1717C19.9184 8.27 20.5484 8.40067 21.0617 8.662C21.5844 8.914 21.9717 9.25933 22.2237 9.698C22.4851 10.1367 22.6157 10.6267 22.6157 11.168ZM19.1717 12.75C19.7784 12.75 20.2311 12.6147 20.5297 12.344C20.8284 12.064 20.9777 11.672 20.9777 11.168C20.9777 10.104 20.3757 9.572 19.1717 9.572H17.4077V12.75H19.1717Z" fill="white"/>
</svg>
