<svg width="20" height="20" viewBox="0 0 20 20" fill="none" xmlns="http://www.w3.org/2000/svg">
<mask id="path-1-inside-1_244_5063" fill="white">
<path d="M8.54167 2.5C5.21235 2.5 2.5 5.21235 2.5 8.54167C2.5 11.871 5.21235 14.5833 8.54167 14.5833C9.98182 14.5833 11.3057 14.0746 12.3454 13.2292L16.4331 17.3169C16.4907 17.3769 16.5597 17.4248 16.636 17.4578C16.7123 17.4907 16.7945 17.5082 16.8776 17.509C16.9608 17.5099 17.0433 17.4941 17.1202 17.4627C17.1972 17.4312 17.2672 17.3848 17.326 17.326C17.3848 17.2672 17.4312 17.1972 17.4627 17.1202C17.4941 17.0433 17.5099 16.9608 17.509 16.8776C17.5082 16.7945 17.4907 16.7123 17.4578 16.636C17.4248 16.5597 17.3769 16.4907 17.3169 16.4331L13.2292 12.3454C14.0746 11.3057 14.5833 9.98182 14.5833 8.54167C14.5833 5.21235 11.871 2.5 8.54167 2.5ZM8.54167 3.75C11.1954 3.75 13.3333 5.8879 13.3333 8.54167C13.3333 9.83442 12.8234 11.0024 11.9963 11.8628C11.9453 11.9003 11.9003 11.9453 11.8628 11.9963C11.0024 12.8234 9.83442 13.3333 8.54167 13.3333C5.8879 13.3333 3.75 11.1954 3.75 8.54167C3.75 5.8879 5.8879 3.75 8.54167 3.75Z"/>
</mask>
<path d="M8.54167 2.5C5.21235 2.5 2.5 5.21235 2.5 8.54167C2.5 11.871 5.21235 14.5833 8.54167 14.5833C9.98182 14.5833 11.3057 14.0746 12.3454 13.2292L16.4331 17.3169C16.4907 17.3769 16.5597 17.4248 16.636 17.4578C16.7123 17.4907 16.7945 17.5082 16.8776 17.509C16.9608 17.5099 17.0433 17.4941 17.1202 17.4627C17.1972 17.4312 17.2672 17.3848 17.326 17.326C17.3848 17.2672 17.4312 17.1972 17.4627 17.1202C17.4941 17.0433 17.5099 16.9608 17.509 16.8776C17.5082 16.7945 17.4907 16.7123 17.4578 16.636C17.4248 16.5597 17.3769 16.4907 17.3169 16.4331L13.2292 12.3454C14.0746 11.3057 14.5833 9.98182 14.5833 8.54167C14.5833 5.21235 11.871 2.5 8.54167 2.5ZM8.54167 3.75C11.1954 3.75 13.3333 5.8879 13.3333 8.54167C13.3333 9.83442 12.8234 11.0024 11.9963 11.8628C11.9453 11.9003 11.9003 11.9453 11.8628 11.9963C11.0024 12.8234 9.83442 13.3333 8.54167 13.3333C5.8879 13.3333 3.75 11.1954 3.75 8.54167C3.75 5.8879 5.8879 3.75 8.54167 3.75Z" fill="#09090B"/>
<path d="M12.3454 13.2292L13.5262 12.0483L12.4608 10.9828L11.2918 11.9335L12.3454 13.2292ZM16.4331 17.3169L17.6377 16.1603L17.626 16.148L17.614 16.136L16.4331 17.3169ZM17.3169 16.4331L16.136 17.614L16.148 17.626L16.1603 17.6377L17.3169 16.4331ZM13.2292 12.3454L11.9335 11.2918L10.9828 12.4608L12.0483 13.5262L13.2292 12.3454ZM11.9963 11.8628L12.9853 13.2084L13.1008 13.1235L13.2002 13.0202L11.9963 11.8628ZM11.8628 11.9963L13.0202 13.2002L13.1235 13.1008L13.2084 12.9853L11.8628 11.9963ZM8.54167 0.83C4.29003 0.83 0.83 4.29004 0.83 8.54167H4.17C4.17 6.13467 6.13466 4.17 8.54167 4.17V0.83ZM0.83 8.54167C0.83 12.7933 4.29003 16.2533 8.54167 16.2533V12.9133C6.13466 12.9133 4.17 10.9487 4.17 8.54167H0.83ZM8.54167 16.2533C10.3823 16.2533 12.0747 15.6017 13.399 14.5248L11.2918 11.9335C10.5367 12.5475 9.58138 12.9133 8.54167 12.9133V16.2533ZM11.1645 14.41L15.2522 18.4978L17.614 16.136L13.5262 12.0483L11.1645 14.41ZM15.2285 18.4735C15.4399 18.6938 15.6932 18.8696 15.9735 18.9907L17.2985 15.9248C17.4261 15.9799 17.5415 16.06 17.6377 16.1603L15.2285 18.4735ZM15.9735 18.9907C16.2537 19.1118 16.5554 19.1758 16.8607 19.1789L16.8946 15.8391C17.0336 15.8405 17.1709 15.8696 17.2985 15.9248L15.9735 18.9907ZM16.8607 19.1789C17.166 19.182 17.4688 19.1242 17.7515 19.0088L16.489 15.9166C16.6177 15.864 16.7556 15.8377 16.8946 15.8391L16.8607 19.1789ZM17.7515 19.0088C18.0341 18.8934 18.2909 18.7227 18.5068 18.5068L16.1451 16.1451C16.2434 16.0468 16.3603 15.9691 16.489 15.9166L17.7515 19.0088ZM18.5068 18.5068C18.7227 18.2909 18.8934 18.0341 19.0088 17.7515L15.9166 16.489C15.9691 16.3603 16.0468 16.2434 16.1451 16.1451L18.5068 18.5068ZM19.0088 17.7515C19.1242 17.4688 19.182 17.166 19.1789 16.8607L15.8391 16.8946C15.8377 16.7556 15.864 16.6177 15.9166 16.489L19.0088 17.7515ZM19.1789 16.8607C19.1758 16.5554 19.1118 16.2537 18.9907 15.9735L15.9248 17.2985C15.8696 17.1709 15.8405 17.0336 15.8391 16.8946L19.1789 16.8607ZM18.9907 15.9735C18.8696 15.6932 18.6938 15.4399 18.4735 15.2285L16.1603 17.6377C16.06 17.5415 15.9799 17.4261 15.9248 17.2985L18.9907 15.9735ZM18.4978 15.2522L14.41 11.1645L12.0483 13.5262L16.136 17.614L18.4978 15.2522ZM14.5248 13.399C15.6017 12.0747 16.2533 10.3823 16.2533 8.54167H12.9133C12.9133 9.58138 12.5475 10.5367 11.9335 11.2918L14.5248 13.399ZM16.2533 8.54167C16.2533 4.29004 12.7933 0.83 8.54167 0.83V4.17C10.9487 4.17 12.9133 6.13467 12.9133 8.54167H16.2533ZM8.54167 5.42C10.2731 5.42 11.6633 6.81021 11.6633 8.54167H15.0033C15.0033 4.96558 12.1178 2.08 8.54167 2.08V5.42ZM11.6633 8.54167C11.6633 9.38511 11.333 10.143 10.7924 10.7054L13.2002 13.0202C14.3138 11.8617 15.0033 10.2837 15.0033 8.54167H11.6633ZM11.0072 10.5172C10.82 10.6548 10.6548 10.82 10.5172 11.0072L13.2084 12.9853C13.1458 13.0705 13.0705 13.1458 12.9853 13.2084L11.0072 10.5172ZM10.7054 10.7924C10.143 11.333 9.38511 11.6633 8.54167 11.6633V15.0033C10.2837 15.0033 11.8617 14.3138 13.0202 13.2002L10.7054 10.7924ZM8.54167 11.6633C6.81021 11.6633 5.42 10.2731 5.42 8.54167H2.08C2.08 12.1177 4.96558 15.0033 8.54167 15.0033V11.6633ZM5.42 8.54167C5.42 6.81021 6.81021 5.42 8.54167 5.42V2.08C4.96558 2.08 2.08 4.96558 2.08 8.54167H5.42Z" fill="#71717A" mask="url(#path-1-inside-1_244_5063)"/>
</svg>
